<svg id="discover" xmlns="http://www.w3.org/2000/svg" width="38" height="24" viewBox="0 0 38 24">
  <path id="Path_1121" data-name="Path 1121" d="M35,0H3A2.946,2.946,0,0,0,0,3V21a3.009,3.009,0,0,0,3,3H35a2.946,2.946,0,0,0,3-3V3A3.009,3.009,0,0,0,35,0Z" opacity="0.07"/>
  <path id="Path_1122" data-name="Path 1122" d="M35,1a2.006,2.006,0,0,1,2,2V21a2.006,2.006,0,0,1-2,2H3a2.006,2.006,0,0,1-2-2V3A2.006,2.006,0,0,1,3,1Z" fill="#fff"/>
  <path id="Path_1123" data-name="Path 1123" d="M3.57,7.16H2v5.5H3.57a2.9,2.9,0,0,0,1.96-.63A2.754,2.754,0,0,0,3.57,7.16ZM4.83,11.3a2.053,2.053,0,0,1-1.47.44H3.07V8.1h.29a2.01,2.01,0,0,1,1.47.44,1.848,1.848,0,0,1,.59,1.37,1.893,1.893,0,0,1-.59,1.39ZM7.02,7.16H8.09v5.5H7.02V7.16Zm3.69,2.11c-.64-.24-.83-.4-.83-.69,0-.35.34-.61.8-.61a1.075,1.075,0,0,1,.86.45l.56-.73a2.418,2.418,0,0,0-1.62-.61A1.625,1.625,0,0,0,8.76,8.66c0,.76.35,1.15,1.35,1.51a5.319,5.319,0,0,1,.74.31.669.669,0,0,1,.32.57.781.781,0,0,1-.83.78,1.282,1.282,0,0,1-1.17-.73l-.69.67a2.127,2.127,0,0,0,1.9,1.05,1.779,1.779,0,0,0,1.9-1.81c.02-.89-.35-1.29-1.57-1.74Zm1.92.65a2.846,2.846,0,0,0,2.9,2.87,2.925,2.925,0,0,0,1.34-.32V11.21a1.711,1.711,0,0,1-1.29.6,1.8,1.8,0,0,1-1.85-1.9,1.826,1.826,0,0,1,1.8-1.89,1.77,1.77,0,0,1,1.34.62V7.38a2.733,2.733,0,0,0-1.32-.34,2.9,2.9,0,0,0-2.92,2.88Zm12.76.94-1.47-3.7H22.75l2.33,5.64h.58l2.37-5.64H26.87l-1.48,3.7Zm3.13,1.8h3.04v-.93H29.59V10.25h1.9V9.32h-1.9V8.1h1.97V7.16H28.52v5.5Zm7.29-3.87c0-1.03-.71-1.62-1.95-1.62H32.27v5.5h1.07V10.46h.14l1.48,2.21h1.32l-1.73-2.32a1.472,1.472,0,0,0,1.26-1.56Zm-2.16.91h-.31V8.03h.33c.67,0,1.03.28,1.03.82s-.36.85-1.05.85Z" fill="#231f20"/>
  <path id="Path_1124" data-name="Path 1124" d="M20.16,12.86a2.931,2.931,0,1,0-2.931-2.931A2.931,2.931,0,0,0,20.16,12.86Z" fill="#fff"/>
  <path id="Path_1125" data-name="Path 1125" d="M20.16,12.86a2.931,2.931,0,1,0-2.931-2.931A2.931,2.931,0,0,0,20.16,12.86Z" fill="#f48120"/>
  <path id="Path_1126" data-name="Path 1126" d="M36.57,7.506c0-.1-.07-.15-.18-.15h-.16v.48h.12v-.19l.14.19h.14l-.16-.2a.122.122,0,0,0,.1-.13Zm-.2.07h-.02v-.13h.02q.09,0,.09.06C36.46,7.556,36.43,7.576,36.37,7.576Z" fill="#231f20"/>
  <path id="Path_1127" data-name="Path 1127" d="M36.41,7.176a.42.42,0,1,0,.42.42.423.423,0,0,0-.42-.42Zm0,.77a.351.351,0,1,1,.33-.35A.346.346,0,0,1,36.41,7.946Z" fill="#231f20"/>
  <path id="Path_1128" data-name="Path 1128" d="M37,12.984S27.09,19.873,8.976,23H35a2,2,0,0,0,2-1.984L37.023,18,37,12.985Z" fill="#f48120"/>
</svg>
