<svg xmlns="http://www.w3.org/2000/svg" width="22.599" height="18.875" viewBox="0 0 22.599 18.875">
  <g id="email" transform="translate(-707.5 -482.711)">
    <path id="Path_7" data-name="Path 7" d="M72.6,155.5a.5.5,0,0,1,.48.64l-5.214,17.875a.5.5,0,0,1-.755.277l-6.978-4.6-2.369,4.061a.5.5,0,0,1-.932-.252v-5.957l-6.069-3.286a.5.5,0,0,1,.068-.91l21.6-7.82A.5.5,0,0,1,72.6,155.5Zm-5.5,17.585,4.748-16.279-19.625,7.106,5.351,2.9a.5.5,0,0,1,.262.44v4.405l1.7-2.92a.5.5,0,0,1,.707-.166Z" transform="translate(657 327.211)" fill="#fff"/>
    <path id="Path_8" data-name="Path 8" d="M73.715,173.25a.5.5,0,0,1-.359-.848l6.752-6.981-6.914,4.852a.5.5,0,0,1-.574-.819l11.206-7.865a.5.5,0,0,1,.647.757l-10.4,10.75A.5.5,0,0,1,73.715,173.25Z" transform="translate(643.251 323.446)" fill="#fff"/>
    <path id="Line_2" data-name="Line 2" d="M0,3.476a.5.5,0,0,1-.43-.243.5.5,0,0,1,.172-.686L4.718-.429A.5.5,0,0,1,5.4-.257a.5.5,0,0,1-.172.686L.257,3.405A.5.5,0,0,1,0,3.476Z" transform="translate(714.331 497.738)" fill="#fff"/>
  </g>
</svg>
