<svg xmlns="http://www.w3.org/2000/svg" width="15" height="15" viewBox="0 0 15 15">
  <path id="email-icon" d="M7.5,12.218a2.173,2.173,0,0,1-1.373-.443L0,7.349v6.243A1.407,1.407,0,0,0,1.406,15H13.594A1.4,1.4,0,0,0,15,13.618V7.349L8.874,11.776A2.368,2.368,0,0,1,7.5,12.218Zm6.961-7.444c-.258-.205-.5-.4-.867-.671V2.81A1.407,1.407,0,0,0,12.187,1.4H9.917c-.092-.066-.172-.125-.267-.19C9.158.852,8.183-.013,7.5,0,6.82-.013,5.842.852,5.35,1.214c-.1.066-.176.125-.267.19H2.812A1.407,1.407,0,0,0,1.406,2.811V4.1c-.362.275-.608.465-.868.67A1.4,1.4,0,0,0,0,5.881v.311L2.812,8.225V2.811h9.375V8.222L15,6.19V5.881A1.393,1.393,0,0,0,14.461,4.774Zm-9.3,2.7H9.844a.464.464,0,0,0,.469-.442.469.469,0,0,0-.469-.469H5.156a.469.469,0,0,0-.469.469A.448.448,0,0,0,5.156,7.472Zm0-1.875H9.844a.469.469,0,0,0,.469-.469.447.447,0,0,0-.469-.442H5.156a.464.464,0,0,0-.469.442A.454.454,0,0,0,5.156,5.6Z" transform="translate(0 0.002)" fill="#fff"/>
</svg>
