<svg xmlns="http://www.w3.org/2000/svg" width="28.36" height="28.363" viewBox="0 0 28.36 28.363">
  <g id="insta" transform="translate(-1115.64 -5096)">
    <path id="Path_946" data-name="Path 946" d="M480.582,409.034a14.182,14.182,0,1,0,14.18,14.182A14.181,14.181,0,0,0,480.582,409.034Zm8.835,19.012a4.01,4.01,0,0,1-4.005,4.005h-9.659a4.01,4.01,0,0,1-4-4.005v-9.66a4.009,4.009,0,0,1,4-4h9.659a4.009,4.009,0,0,1,4.005,4Z" transform="translate(649.238 4686.966)" fill="#fff"/>
    <ellipse id="Ellipse_1" data-name="Ellipse 1" cx="2.995" cy="2.995" rx="2.995" ry="2.995" transform="translate(1126.825 5107.187)" fill="#fff"/>
    <path id="Path_947" data-name="Path 947" d="M492.477,422.644h-9.659a2.81,2.81,0,0,0-2.807,2.807v9.66a2.81,2.81,0,0,0,2.807,2.807h9.659a2.81,2.81,0,0,0,2.807-2.807v-9.66A2.81,2.81,0,0,0,492.477,422.644Zm-4.83,12.43a4.792,4.792,0,1,1,4.792-4.792A4.8,4.8,0,0,1,487.648,435.074Zm5.016-8.761a1.048,1.048,0,1,1,1.048-1.048A1.048,1.048,0,0,1,492.664,426.313Z" transform="translate(642.172 4679.9)" fill="#fff"/>
  </g>
</svg>
