<svg xmlns="http://www.w3.org/2000/svg" width="15" height="15" viewBox="0 0 15 15">
  <path id="language" d="M15,7.5A7.5,7.5,0,1,1,7.5,0,7.5,7.5,0,0,1,15,7.5ZM1.691,5.628l.274.507a1.876,1.876,0,0,0,1.114.873l1.67.483a1.164,1.164,0,0,1,.876,1.128V9.788a.781.781,0,0,0,.469.732.919.919,0,0,1,.469.785v1.143a.686.686,0,0,0,.876.659A1.418,1.418,0,0,0,8.4,12.12l.082-.328a1.883,1.883,0,0,1,.888-1.175l.237-.135a1.4,1.4,0,0,0,.709-1.222v-.24a1.408,1.408,0,0,0-.413-1l-.111-.111a1.44,1.44,0,0,0-1-.439H7.5a1.837,1.837,0,0,1-.905-.22l-1.011-.58a.575.575,0,0,1-.267-.325.6.6,0,0,1,.3-.721l.176-.085a.753.753,0,0,1,.6-.044l.706.226A.56.56,0,0,0,7.7,4.834l-.4-.475a.936.936,0,0,1,.009-1.21l.46-.538a.938.938,0,0,0,.1-1.075L7.8,1.414c-.126,0-.2-.008-.3-.008A6.106,6.106,0,0,0,1.691,5.628Zm11.13-1.1-.75.3a.939.939,0,0,0-.542,1.166l.5,1.485a.945.945,0,0,0,.662.615l.855.211a6.119,6.119,0,0,0-.721-3.779Z" fill="#fff"/>
</svg>
