<svg xmlns="http://www.w3.org/2000/svg" width="15" height="15" viewBox="0 0 15 15">
  <path id="phone-icon" d="M5.625,1.875h5.786l.776.777V4.688h1.875V2.263a.937.937,0,0,0-.275-.663L12.462.275A.937.937,0,0,0,11.8,0H4.688A.937.937,0,0,0,3.75.938v3.75H5.625ZM1.875,3.75H.938A.94.94,0,0,0,0,4.688v9.375A.939.939,0,0,0,.938,15h.938a.939.939,0,0,0,.938-.937V4.688A.94.94,0,0,0,1.875,3.75ZM14.063,5.625H3.75v8.438A.94.94,0,0,0,4.688,15h9.375A.94.94,0,0,0,15,14.063v-7.5A.94.94,0,0,0,14.063,5.625ZM8.438,12.656a.467.467,0,0,1-.469.469H7.031a.466.466,0,0,1-.469-.469v-.937a.466.466,0,0,1,.469-.469h.938a.467.467,0,0,1,.469.469Zm0-3.75a.467.467,0,0,1-.469.469H7.031a.466.466,0,0,1-.469-.469V7.969A.466.466,0,0,1,7.031,7.5h.938a.466.466,0,0,1,.469.469Zm3.75,3.75a.467.467,0,0,1-.469.469h-.937a.467.467,0,0,1-.469-.469v-.937a.467.467,0,0,1,.469-.469h.938a.467.467,0,0,1,.469.469Zm0-3.75a.467.467,0,0,1-.469.469h-.937a.466.466,0,0,1-.469-.469V7.969a.466.466,0,0,1,.469-.469h.938a.466.466,0,0,1,.469.469Z" fill="#fff"/>
</svg>
