<svg xmlns="http://www.w3.org/2000/svg" xmlns:xlink="http://www.w3.org/1999/xlink" width="28.36" height="28.36" viewBox="0 0 28.36 28.36">
  <defs>
    <clipPath id="clip-path">
      <rect id="Rectangle_67" data-name="Rectangle 67" width="28.36" height="28.36" fill="#fff"/>
    </clipPath>
  </defs>
  <g id="pinterest" clip-path="url(#clip-path)">
    <path id="Path_1436" data-name="Path 1436" d="M14.014,0A14.106,14.106,0,0,0,0,14.2a14.106,14.106,0,0,0,14.014,14.2A14.106,14.106,0,0,0,28.028,14.2,14.106,14.106,0,0,0,14.014,0M15.78,18.15A2.787,2.787,0,0,1,13.4,16.919s-.567,2.277-.686,2.717a10.585,10.585,0,0,1-1.761,3.233.129.129,0,0,1-.231-.056,11.2,11.2,0,0,1,.029-3.755L12,13.673a3.842,3.842,0,0,1-.311-1.563c0-1.464.838-2.558,1.881-2.558a1.317,1.317,0,0,1,1.315,1.484,21.413,21.413,0,0,1-.861,3.506,1.524,1.524,0,0,0,1.54,1.9c1.848,0,3.093-2.4,3.093-5.254,0-2.165-1.439-3.786-4.059-3.786a4.65,4.65,0,0,0-4.8,4.732,2.872,2.872,0,0,0,.644,1.937.484.484,0,0,1,.141.551c-.047.182-.154.619-.2.793a.335.335,0,0,1-.488.247c-1.362-.564-2-2.076-2-3.775,0-2.807,2.337-6.173,6.971-6.173a5.862,5.862,0,0,1,6.175,5.661c0,3.876-2.128,6.772-5.263,6.772" transform="translate(0 0)" fill="#fff"/>
  </g>
</svg>
