<svg id="Competitive" xmlns="http://www.w3.org/2000/svg" xmlns:xlink="http://www.w3.org/1999/xlink" width="49.88" height="50" viewBox="0 0 49.88 50">
  <defs>
    <clipPath id="clip-path">
      <rect id="Rectangle_217" data-name="Rectangle 217" width="49.88" height="50" fill="#0069a9"/>
    </clipPath>
  </defs>
  <g id="Group_1014" data-name="Group 1014" clip-path="url(#clip-path)">
    <path id="Path_1459" data-name="Path 1459" d="M49.108,36.217q-1.6-9.045-3.187-18.092c-.268-1.52-.521-3.042-.809-4.558a5.114,5.114,0,0,0-3.175-3.974c-3.737-1.565-7.5-3.079-11.249-4.608a2.672,2.672,0,0,0-.883-.257c-.484-.015-.615-.262-.674-.685-.11-.788-.3-1.565-.392-2.354A1.861,1.861,0,0,0,27.561,0h-.682a1.608,1.608,0,0,0-1.047,2.115c.161.9.321,1.791.468,2.689.021.125.016.325-.06.385-.786.621-1.59,1.221-2.4,1.838-.4-.268-.851-.55-1.275-.869a.509.509,0,0,1-.088-.409c.2-1.2.41-2.4.615-3.6S23.134.589,22.1,0h-.78A2.009,2.009,0,0,0,20.2,1.679c-.162,1.191-.4,2.371-.629,3.552a.562.562,0,0,1-.275.372c-1.333.5-2.687.948-4.01,1.471C12.538,8.16,9.816,9.3,7.071,10.386a5.83,5.83,0,0,0-3.691,4.96C2.337,21.581,1.22,27.8.106,34.027a5.449,5.449,0,0,0,4.623,6.6c4.493.768,8.979,1.577,13.47,2.361.327.057.492.172.535.54.083.709.225,1.412.366,2.113a5.372,5.372,0,0,0,4.3,4.267,1.966,1.966,0,0,1,.267.092h1.365c1.383-.258,2.766-.525,4.151-.771q7.374-1.309,14.75-2.607c.558-.1,1.122-.178,1.673-.309a5.266,5.266,0,0,0,4.188-4.3,1.254,1.254,0,0,1,.091-.215V40.429c-.258-1.4-.524-2.807-.772-4.213m-35.477,3C10.787,38.712,7.945,38.2,5.1,37.7a2.437,2.437,0,0,1-2.124-3.029q1.712-9.75,3.426-19.5a2.409,2.409,0,0,1,1.5-1.954q5.429-2.213,10.87-4.4a.883.883,0,0,1,.168-.014c-.1.6-.2,1.156-.284,1.715a1.455,1.455,0,1,0,2.86.537c.064-.285.111-.574.163-.862s.1-.569.164-.929c.188.162.333.281.473.408,2.707,2.46,5.405,4.929,8.124,7.377a2.7,2.7,0,0,1,.9,2.674q-1.711,9.651-3.4,19.305A2.459,2.459,0,0,1,24.847,41.2c-3.741-.648-7.478-1.32-11.216-1.982M44.88,43.471Q37.769,44.75,30.652,46q-2.9.513-5.8,1.024A2.417,2.417,0,0,1,21.982,45.1c-.1-.458-.171-.923-.271-1.469.565.1,1.084.178,1.6.271a8.291,8.291,0,0,0,3.231.2,5.48,5.48,0,0,0,4.323-4.812q1.661-9.557,3.352-19.109a5.385,5.385,0,0,0-1.754-5.242q-2.956-2.692-5.918-5.377c-.155-.141-.308-.286-.514-.477.452-.4.833-.775,1.261-1.09a2.338,2.338,0,0,1,2.4-.261q5.494,2.244,10.985,4.495a2.521,2.521,0,0,1,1.6,2.044q2.3,13.132,4.616,26.262a2.414,2.414,0,0,1-2.016,2.933" transform="translate(0)" fill="#0069a9"/>
    <path id="Path_1460" data-name="Path 1460" d="M33.294,34.932c.061-.388.116-.724.166-1.059a.971.971,0,1,0-1.9-.341,4.088,4.088,0,0,0-.132.718c-.013.372-.19.481-.543.511a4.415,4.415,0,0,0-3.973,3.752,3.613,3.613,0,0,0,1.119,3.415c.457.413.938.8,1.432,1.169a.57.57,0,0,1,.295.67c-.211,1.018-.362,2.048-.542,3.072-.2,1.113-.4,2.226-.6,3.356a5.014,5.014,0,0,1-2.326-1.237,1.479,1.479,0,0,0-.987-.346,1.172,1.172,0,0,0-.709.629.888.888,0,0,0,.292,1.052,6.78,6.78,0,0,0,3.382,1.841c-.077.493-.168.938-.211,1.387a.959.959,0,0,0,1.894.3,5.373,5.373,0,0,0,.165-.91c.028-.371.174-.526.562-.546A4.791,4.791,0,0,0,33.4,51.3c2.609-2.018,3.145-6.254-.446-8.321-.225-.129-.441-.277-.674-.39a.408.408,0,0,1-.255-.533c.208-1.052.372-2.112.559-3.168.117-.659.244-1.317.376-2.029a4.508,4.508,0,0,1,.583.323c.28.22.548.458.8.7a1.006,1.006,0,0,0,1.5.117.987.987,0,0,0-.094-1.47,5.485,5.485,0,0,0-2.457-1.6M30.2,41.165a2.167,2.167,0,0,1-1.337-2.506,2.461,2.461,0,0,1,2.12-1.925c-.265,1.5-.523,2.96-.783,4.431m3.319,6.326a3.286,3.286,0,0,1-2.952,2.865q.51-2.9,1.017-5.793a2.688,2.688,0,0,1,1.935,2.928" transform="translate(-13.568 -18.07)" fill="#0069a9"/>
  </g>
</svg>
