<svg id="footer-logo" xmlns="http://www.w3.org/2000/svg" xmlns:xlink="http://www.w3.org/1999/xlink" width="210.388" height="50" viewBox="0 0 210.388 50">
  <defs>
    <clipPath id="clip-path">
      <rect id="Rectangle_174" data-name="Rectangle 174" width="210.388" height="50" fill="none"/>
    </clipPath>
  </defs>
  <g id="Group_978" data-name="Group 978" clip-path="url(#clip-path)">
    <path id="Path_1437" data-name="Path 1437" d="M190.425,82.366V68.052a3.119,3.119,0,0,0,0-.41c-.051-.381.141-.449.477-.449q6.061.012,12.122,0c.318,0,.445.077.441.417-.016,1.255-.019,2.511,0,3.767.006.381-.15.444-.485.443-2.329-.012-4.657-.006-6.986-.006-.16,0-.32,0-.479,0-.48.009-.489.009-.49.478q-.006,2.6,0,5.205c0,.73-.005,1.461,0,2.192,0,.469.012.477.5.478,1.644,0,3.287,0,4.931,0,.16,0,.32,0,.479,0,.207,0,.271.1.27.3q-.006,1.986,0,3.972c0,.381-.27.294-.478.3-1.575,0-3.15,0-4.726,0-.981,0-.981,0-.981.962q0,3.39,0,6.78c0,.566-.024.569.556.568,2.443-.005,4.886,0,7.328,0,.613,0,.551-.016.551.555,0,1.187-.013,2.374.008,3.561.006.357-.1.459-.457.458-4.018-.012-8.036-.007-12.054-.009-.523,0-.527-.009-.527-.587q0-5.924,0-11.848V82.366" transform="translate(-136.071 -48.016)" fill="#fff"/>
    <path id="Path_1438" data-name="Path 1438" d="M594.036,66.093a7.8,7.8,0,0,1,2.428.362,6.628,6.628,0,0,1,4.545,5.116c.117.462.364,1.016.15,1.394-.2.36-.826.251-1.263.342-.826.172-1.657.318-2.487.463-.523.092-.535.084-.613-.428a5.362,5.362,0,0,0-.73-2.046,2.285,2.285,0,0,0-2.274-1.092,2.08,2.08,0,0,0-1.836,1.33,4.825,4.825,0,0,0-.149,3.6,8.157,8.157,0,0,0,1.944,3.105,24.044,24.044,0,0,0,2.194,1.961,19.542,19.542,0,0,1,3.193,3.28,10.729,10.729,0,0,1,2.21,4.8,8.154,8.154,0,0,1-1.933,6.88,6,6,0,0,1-3.57,1.871,9.024,9.024,0,0,1-4.005-.145,6.549,6.549,0,0,1-3.8-2.752,10.684,10.684,0,0,1-1.678-5.075c-.033-.335.03-.479.416-.5,1.116-.053,2.23-.165,3.345-.24.548-.037.544-.022.628.506a8.073,8.073,0,0,0,.614,2.163,4.208,4.208,0,0,0,.665,1.032,2.528,2.528,0,0,0,3.714.2,3.494,3.494,0,0,0,1.083-3.041,5.634,5.634,0,0,0-1.908-3.68c-1.229-1.192-2.487-2.354-3.728-3.534a21.007,21.007,0,0,1-2.648-2.953,9.129,9.129,0,0,1-1.308-8.272c.875-2.97,3.375-4.66,6.794-4.654" transform="translate(-419.015 -47.23)" fill="#fff"/>
    <path id="Path_1439" data-name="Path 1439" d="M10.542,73.845a6.586,6.586,0,0,0-.78-2.493,2.282,2.282,0,0,0-2.1-1.169,2.072,2.072,0,0,0-1.955,1.144,4.61,4.61,0,0,0-.335,3.517,8,8,0,0,0,2.015,3.371,18.183,18.183,0,0,0,1.774,1.608,22.181,22.181,0,0,1,3.363,3.3,11.349,11.349,0,0,1,2.4,4.785,8.158,8.158,0,0,1-1.8,7.165,5.95,5.95,0,0,1-3.606,1.938,8.941,8.941,0,0,1-4-.134,6.693,6.693,0,0,1-4.2-3.374A11.126,11.126,0,0,1,0,88.641a5.061,5.061,0,0,1,1.208-.131c.863-.08,1.727-.145,2.593-.2.507-.033.517-.022.6.463a9.541,9.541,0,0,0,.47,1.851,4.514,4.514,0,0,0,.831,1.4,2.525,2.525,0,0,0,3.714.17,3.62,3.62,0,0,0,1.006-3.519,5.819,5.819,0,0,0-1.857-3.2c-1.234-1.186-2.487-2.352-3.728-3.532a19.052,19.052,0,0,1-2.8-3.179A8.979,8.979,0,0,1,1.028,70.4,6.22,6.22,0,0,1,6.88,66.1a8.594,8.594,0,0,1,3.182.32,6.559,6.559,0,0,1,4.514,4.815,14.659,14.659,0,0,1,.29,1.474c.034.191.022.346-.241.392-1.344.235-2.686.487-4.084.743" transform="translate(0 -47.216)" fill="#fff"/>
    <path id="Path_1440" data-name="Path 1440" d="M308.623,67.186h2.512q.89,0,1.78,0c.653,0,.655,0,.842.6q1.1,3.557,2.2,7.115.414,1.338.828,2.676a.554.554,0,0,0,.23.376l1.142-3.7c.679-2.2,1.368-4.393,2.027-6.6a.565.565,0,0,1,.665-.485c1.346.027,2.693.01,4.04.011.131,0,.262.014.386.021a1.145,1.145,0,0,1-.153.748q-2.835,8.166-5.687,16.327a3.565,3.565,0,0,0-.2,1.2q.011,5.649,0,11.3c0,.16-.009.32,0,.479.015.222-.053.338-.3.337q-1.986-.009-3.972,0c-.25,0-.311-.117-.3-.334.009-.159,0-.319,0-.479q0-5.649,0-11.3a3.38,3.38,0,0,0-.193-1.136q-2.863-8.228-5.707-16.464a1.373,1.373,0,0,1-.158-.7" transform="translate(-220.538 -48.004)" fill="#fff"/>
    <path id="Path_1441" data-name="Path 1441" d="M133.693,82.46V68.146c0-.091,0-.183,0-.274,0-.721-.06-.665.662-.665h11.711c.114,0,.229.008.342,0,.241-.018.319.1.316.326-.006.434,0,.867,0,1.3,0,.822,0,1.644,0,2.466,0,.513-.01.52-.527.521q-3.527,0-7.054,0c-.851,0-.851,0-.851.872q0,3.459,0,6.917c0,.567-.022.57.557.567,1.689-.006,3.378,0,5.068,0,.615,0,.562.01.561.557,0,1.187-.016,2.375.008,3.561.008.373-.121.461-.468.458-1.712-.014-3.424-.008-5.137-.005-.582,0-.587.005-.587.6q0,5.719,0,11.437a3.223,3.223,0,0,0,0,.41c.043.335-.1.435-.426.43-1.027-.016-2.055,0-3.082-.009-.339,0-.766.145-.994-.068-.262-.245-.092-.692-.093-1.049q-.012-7.02-.005-14.04" transform="translate(-95.503 -48.024)" fill="#fff"/>
    <path id="Path_1442" data-name="Path 1442" d="M659.724,85.034V97.016c0,.16-.011.32,0,.479.021.253-.058.365-.338.362-1.3-.011-2.6-.007-3.9,0-.225,0-.343-.062-.324-.308.013-.182,0-.365,0-.548v-23.9c0-.137,0-.274,0-.411,0-.614.033-.6-.6-.6-1.278,0-2.556-.008-3.834.007-.341,0-.48-.075-.472-.454.025-1.209.006-2.419.01-3.629,0-.48.009-.489.485-.49,1.848,0,3.7,0,5.546,0q3.834,0,7.669,0c.591,0,.6,0,.6.589q0,1.746,0,3.492c0,.475-.011.483-.494.485-1.255.005-2.511,0-3.766,0-.578,0-.582.006-.582.607q0,6.162,0,12.324" transform="translate(-464.68 -48.258)" fill="#fff"/>
    <path id="Path_1443" data-name="Path 1443" d="M251.983,85.018V72.967c0-.114,0-.228,0-.342-.01-.514-.01-.521-.53-.523-1.278,0-2.556,0-3.834,0-.521,0-.527-.009-.529-.517q-.006-1.78,0-3.56c0-.478.009-.488.486-.489q2.842-.006,5.683,0,3.8,0,7.6,0c.518,0,.525.008.527.521q.007,1.78,0,3.56c0,.474-.011.482-.5.484-1.232,0-2.465,0-3.7,0-.714,0-.65-.043-.65.678q0,10.75,0,21.5c0,1.05-.011,2.1.007,3.149.005.315-.064.44-.411.434-1.209-.021-2.419-.01-3.629-.007-.555,0-.529.024-.528-.511q0-2.259,0-4.519Z" transform="translate(-176.57 -48.258)" fill="#fff"/>
    <path id="Path_1444" data-name="Path 1444" d="M561.261,82.758V97a2.857,2.857,0,0,0,0,.41c.057.383-.132.457-.473.452-1.232-.015-2.464-.013-3.7,0-.308,0-.486-.065-.434-.416a2.322,2.322,0,0,0,0-.342q0-14.408,0-28.817c0-.845-.134-.748.771-.752,1.027,0,2.053,0,3.08,0,.844,0,.742-.068.743.717q0,3.8,0,7.6v6.913" transform="translate(-397.787 -48.255)" fill="#fff"/>
    <path id="Path_1445" data-name="Path 1445" d="M70.859,29.722q-16.986,0-33.971.011a1.98,1.98,0,0,1-1.36-.48c-2.484-2.047-4.985-4.072-7.483-6.1-.472-.384-.478-.384-.959.007q-3.773,3.067-7.538,6.143a1.718,1.718,0,0,1-1.171.43q-8.15-.02-16.3-.009c-.182,0-.365,0-.547-.02a.174.174,0,0,1-.163-.182c-.008-.129.036-.229.176-.239.2-.014.41-.017.615-.017q7.979,0,15.958.008a1.806,1.806,0,0,0,1.244-.428c2.589-2.134,5.194-4.249,7.794-6.37.416-.339.417-.337.86.025q3.9,3.182,7.795,6.369a1.724,1.724,0,0,0,1.185.4q7.637-.018,15.273-.007h52.4l.616,0c.168,0,.329.012.317.246-.01.187-.145.205-.286.208-.205,0-.411,0-.616,0H70.859" transform="translate(-0.976 -15.88)" fill="#d89f15"/>
    <path id="Path_1446" data-name="Path 1446" d="M521.609,47.339H492.778c-.205,0-.411,0-.616-.005-.152-.006-.263-.064-.252-.246a.207.207,0,0,1,.221-.206c.159-.01.319-.009.479-.009H550.75c.114,0,.229,0,.342,0,.155.009.344-.017.352.216.01.287-.217.238-.389.247s-.365,0-.548,0h-28.9" transform="translate(-351.52 -33.494)" fill="#daa420"/>
    <path id="Path_1447" data-name="Path 1447" d="M696.323,114.4c0-.82-.027-1.642.007-2.461a2.049,2.049,0,0,1,1.738-1.918,2.077,2.077,0,0,1,2.252,1.169,3.6,3.6,0,0,1,.2,1.611c0,.1-.037.208-.13.213-.363.019-.727.022-1.09.013-.094,0-.141-.106-.143-.2,0-.182,0-.365-.005-.547-.016-.663-.273-.981-.785-.975-.488.006-.734.3-.749.934-.013.569,0,1.139,0,1.709q0,1.23,0,2.461a3.515,3.515,0,0,0,.017.477.749.749,0,0,0,.705.707.773.773,0,0,0,.8-.691,5.3,5.3,0,0,0,.012-.888c-.012-.275.055-.419.374-.412,1.223.025.973-.121,1,.951a2.227,2.227,0,0,1-.5,1.59,2.114,2.114,0,0,1-2.294.627,2.045,2.045,0,0,1-1.407-1.907c-.021-.82,0-1.64,0-2.461Z" transform="translate(-497.589 -78.594)" fill="#fff"/>
    <path id="Path_1448" data-name="Path 1448" d="M733.973,137.044c0,.135,0,.271,0,.406,0,.094-.012.22-.1.225-.359.021-.719.015-1.079.012-.035,0-.1-.052-.1-.081,0-.382-.006-.765.01-1.147,0-.1.109-.128.2-.129.113,0,.226,0,.339,0,.8.012.72-.114.726.715" transform="translate(-523.585 -97.421)" fill="#fff"/>
    <path id="Path_1449" data-name="Path 1449" d="M506.2,80.079c0-2.259-.007-4.518,0-6.776a7.221,7.221,0,0,0-10.1-6.693,6.85,6.85,0,0,0-4.4,6.656c-.03,2.76-.006,5.521-.006,8.282h.011c0,2.9-.073,5.8.021,8.692a6.74,6.74,0,0,0,4.216,6.218,6.889,6.889,0,0,0,7.469-.9,7.049,7.049,0,0,0,2.791-5.894c-.009-3.194,0-6.388,0-9.582m-4.787,9.989a2.631,2.631,0,0,1-5.2.14,4.724,4.724,0,0,1-.061-.748q-.005-7.978,0-15.955a3.3,3.3,0,0,1,.2-1.275,2.673,2.673,0,0,1,2.818-1.609,2.615,2.615,0,0,1,2.244,2.33c.025.249.017.5.017.753q0,3.9,0,7.806t0,7.806a6.962,6.962,0,0,1-.02.753" transform="translate(-351.356 -47.165)" fill="#fff"/>
    <path id="Path_1450" data-name="Path 1450" d="M718.748,111.948a2.062,2.062,0,0,0-2.166-2,2.113,2.113,0,0,0-2.011,2.167c-.009.751,0,1.5,0,2.254,0,.774-.007,1.549,0,2.323a2.06,2.06,0,0,0,2,2.152,2.017,2.017,0,0,0,2.172-1.976c.06-1.637.059-3.279,0-4.916m-1.346,2.473c0,.683,0,1.366,0,2.05a2.234,2.234,0,0,1-.03.475.768.768,0,0,1-.726.614.76.76,0,0,1-.764-.646,2.108,2.108,0,0,1-.026-.408q0-2.118,0-4.236a2.184,2.184,0,0,1,.008-.273.725.725,0,0,1,.745-.731.737.737,0,0,1,.787.763c.02.2.006.41.007.614q0,.888,0,1.776" transform="translate(-510.633 -78.565)" fill="#fff"/>
    <path id="Path_1451" data-name="Path 1451" d="M417.4,48.745q.009-23.993.005-47.986c0-.251-.006-.5-.009-.753q-3.344,0-6.689,0a1.487,1.487,0,0,0-.8.1q0,3.261,0,6.521a2.235,2.235,0,0,1-.048.741c-.156.2-.378.119-.572.119q-3.858.008-7.717,0c-.2,0-.413.052-.59-.1-.207-.21-.118-.476-.118-.717-.007-1.939,0-3.879,0-5.818,0-.758,0-.761-.734-.762q-2.875,0-5.75,0c-1.015,0-.911-.082-.911.925q0,23.958,0,47.916c0,.205,0,.411.007.616l7.38.014c.008-.25.023-.5.023-.75,0-1.936,0-3.873,0-5.81,0-.648.027-.68.632-.68q3.93-.007,7.86,0c.172,0,.371-.066.5.125.015.249.041.5.042.748q.007,3.181.006,6.362c.3,0,.592.007.887.008l6.485.02c.236-.253.119-.564.119-.846M401.118,10.222c-.007-.326.091-.445.424-.432.569.022,1.139.006,1.708.006q2.87,0,5.74,0a1.715,1.715,0,0,1,.741.071q0,1.751-.009,3.5c-1.435.009-2.87.02-4.3.025-1.276,0-2.551-.008-3.827.007-.337,0-.486-.068-.475-.447.026-.91.021-1.823,0-2.733m5.668,29.757c-1.732,0-3.464-.006-5.2.007-.338,0-.484-.069-.472-.448.028-.888.017-1.777,0-2.666,0-.294.032-.455.4-.452,2.734.023,5.468.026,8.2.035q0,1.748,0,3.5c-.979.009-1.959.025-2.938.027m2.343-6.111h-7.394c-.691,0-.61.017-.611-.643q0-2.225,0-4.45c.1-.124.248-.092.381-.092q3.922,0,7.843,0c.131,0,.278-.037.374.1q0,2.5.008,5.008a1.275,1.275,0,0,1-.6.075m.593-13.1-7.662.026c-.205,0-.411-.01-.616,0-.233.013-.323-.079-.322-.316.007-1.437,0-2.873,0-4.31a.3.3,0,0,1,.164-.276c1.182.011,2.365.026,3.547.03,1.411.005,2.822,0,4.233,0a1.109,1.109,0,0,1,.665.087q-.007,2.377-.014,4.755" transform="translate(-281.166 0)" fill="#d79c0d"/>
    <path id="Path_1452" data-name="Path 1452" d="M78.316,93.7q-.847-5.058-1.694-10.116-.933-5.563-1.869-11.127c-.253-1.506-.523-3.009-.756-4.518-.054-.352-.2-.446-.526-.433-.57.022-1.141.006-1.712.006-1.21,0-2.42,0-3.629,0-.5,0-.5.008-.6.51-.013.067-.016.136-.027.2q-.384,2.258-.769,4.516Q65.817,78.14,64.9,83.533c-.67,3.932-1.348,7.863-2.007,11.8a22.137,22.137,0,0,0-.38,2.507h3.944c.791,0,.779,0,.9-.787q.445-2.837.912-5.671c.086-.522.1-.524.638-.525q1.815,0,3.629,0c.588,0,.593,0,.681.574.2,1.307.392,2.615.59,3.923.11.721.229,1.441.338,2.162.031.2.088.33.334.328,1.481-.008,2.961,0,4.523,0-.24-1.437-.465-2.785-.69-4.133m-9.252-7.313L70.72,74.633l1.645,11.758Z" transform="translate(-44.672 -48.242)" fill="#fff"/>
  </g>
</svg>
