<svg id="Innovative" xmlns="http://www.w3.org/2000/svg" xmlns:xlink="http://www.w3.org/1999/xlink" width="50" height="51.99" viewBox="0 0 50 51.99">
  <defs>
    <clipPath id="clip-path">
      <rect id="Rectangle_216" data-name="Rectangle 216" width="50" height="51.99" fill="#0069a9"/>
    </clipPath>
  </defs>
  <g id="Group_1012" data-name="Group 1012" clip-path="url(#clip-path)">
    <path id="Path_1457" data-name="Path 1457" d="M50,23.513a2.977,2.977,0,0,0-3.243-3.259c-.367,0-.734-.006-1.1-.006s-.707,0-1.075.01l-.041,0c0-.011-.009-.027-.014-.049a18.78,18.78,0,0,0-2.168-5.31.436.436,0,0,1-.027-.053.7.7,0,0,1,.068-.072c.526-.5,1.044-1.026,1.544-1.534L44,13.18A2.947,2.947,0,0,0,44.043,8.9q-1.334-1.391-2.685-2.768a2.946,2.946,0,0,0-4.388-.014c-.4.4-.8.8-1.175,1.184l-.3.305c-.226-.112-.447-.225-.666-.336-.672-.341-1.307-.664-1.973-.944s-1.361-.518-2.081-.765q-.339-.115-.681-.234l0-1.139c0-.455,0-.91-.008-1.365a2.951,2.951,0,0,0-2.151-2.8L27.871,0H22.466l-.1.084c-.015.012-.03.025-.05.044a2.857,2.857,0,0,0-2.1,3.045V5.4c-.233.077-.464.15-.693.223-.726.231-1.411.45-2.093.728s-1.345.606-2.037.95c-.223.111-.449.223-.678.334l-.376-.388c-.423-.437-.86-.889-1.308-1.327a2.976,2.976,0,0,0-2.082-.87,3.019,3.019,0,0,0-2.083.858Q7.45,7.255,6.053,8.619a3.094,3.094,0,0,0-.993,2.188A3.091,3.091,0,0,0,6.03,13q.593.59,1.194,1.172l.334.327a20.9,20.9,0,0,0-2.264,5.282.341.341,0,0,1-.093.046c-.286.011-.572.014-.857.014l-.825,0c-.187,0-.374,0-.561,0A2.918,2.918,0,0,0,0,22.824C0,23.878,0,24.932,0,25.985v.742A2.914,2.914,0,0,0,3.1,29.823h.113c.35,0,.7,0,1.051,0s.7,0,1.061-.009l.038,0a.468.468,0,0,1,.015.051,18.781,18.781,0,0,0,2.168,5.31.457.457,0,0,1,.03.057.718.718,0,0,1-.065.07c-.59.564-1.166,1.137-1.712,1.7A2.917,2.917,0,0,0,5.783,41.1c1.015,1.068,1.952,2.032,2.862,2.949a3.027,3.027,0,0,0,2.126.9,2.649,2.649,0,0,0,1.751-.645,23.011,23.011,0,0,0,1.807-1.8c.237-.254.469-.5.7-.742l.255-.263-1.717-1.758-.894.911c-.5.51-1.007,1.029-1.522,1.541a.7.7,0,0,1-.426.238.526.526,0,0,1-.35-.191c-.934-.945-1.846-1.885-2.713-2.794-.281-.3-.276-.486.021-.787.435-.441.875-.877,1.314-1.314q.4-.4.808-.806a1.359,1.359,0,0,0,.239-2.04,16.884,16.884,0,0,1-2.4-6A1.283,1.283,0,0,0,6.2,27.318c-.313,0-3.1,0-3.1,0-.477,0-.6-.125-.6-.6-.009-1.2-.009-2.438,0-3.8,0-.444.123-.56.585-.562q.446,0,.892,0h.645s1.191,0,1.464,0A1.3,1.3,0,0,0,7.539,21.2a17.724,17.724,0,0,1,2.546-6,1.3,1.3,0,0,0-.2-1.892q-.484-.488-.973-.97c-.373-.37-.746-.74-1.115-1.114a.656.656,0,0,1-.236-.416.615.615,0,0,1,.228-.391q1.341-1.309,2.7-2.6a.787.787,0,0,1,.454-.27.83.83,0,0,1,.48.3q.663.656,1.323,1.316l.661.659a1.717,1.717,0,0,0,1.151.665A2.052,2.052,0,0,0,15.6,10.08a16.875,16.875,0,0,1,5.916-2.343A1.271,1.271,0,0,0,22.7,6.3c0-.638,0-1.276,0-1.914V3.249c0-.683.058-.738.76-.739l1.709,0,1.792,0c.575,0,.635.06.638.634q0,.739,0,1.478c0,.524,0,1.049,0,1.574a1.286,1.286,0,0,0,1.166,1.441,17.762,17.762,0,0,1,5.961,2.511,1.642,1.642,0,0,0,.906.341A1.547,1.547,0,0,0,36.7,9.926q.4-.4.8-.8c.416-.416.832-.832,1.252-1.243a.655.655,0,0,1,.41-.231.631.631,0,0,1,.4.234c1,1.014,1.861,1.905,2.643,2.725.312.327.312.5,0,.823-.476.483-.958.961-1.44,1.44l-.611.608c-.808.806-.854,1.216-.243,2.2a16.733,16.733,0,0,1,2.339,5.865,1.3,1.3,0,0,0,1.461,1.22h2.168q.492,0,.983,0c.517,0,.643.124.646.618q.012,1.874,0,3.747c0,.478-.117.588-.609.591l-.823,0H44.8l-.9,0a1.288,1.288,0,0,0-1.428,1.129A17.893,17.893,0,0,1,39.905,34.9a1.285,1.285,0,0,0,.193,1.849q.537.542,1.079,1.079.488.485.973.973a.8.8,0,0,1,.29.473.744.744,0,0,1-.277.44q-1.308,1.27-2.626,2.531a.835.835,0,0,1-.479.287.845.845,0,0,1-.491-.309c-.512-.515-1.02-1.034-1.525-1.549l-.935-.953-1.8,1.786.977.978c.54.541,1.087,1.089,1.639,1.633a2.954,2.954,0,0,0,4.24.032q1.4-1.329,2.776-2.674a2.95,2.95,0,0,0,.041-4.389c-.391-.392-.785-.78-1.183-1.172l-.351-.346A20.767,20.767,0,0,0,44.7,30.3a.354.354,0,0,1,.086-.048c.309-.012.618-.015.928-.015l.856,0,.407,0A2.922,2.922,0,0,0,50,27.217c0-.874,0-1.747,0-2.621Z" transform="translate(0)" fill="#0069a9"/>
    <path id="Path_1458" data-name="Path 1458" d="M52.431,54.048a13.867,13.867,0,0,0,4.58-11.07,13.63,13.63,0,0,0-5.6-10.359,14.156,14.156,0,0,0-8.49-2.769,17.852,17.852,0,0,0-3.549.373A13.807,13.807,0,0,0,28.811,46.894a13.937,13.937,0,0,0,4.437,7.35,8.658,8.658,0,0,1,2.873,4.863.485.485,0,0,1-.168.556,4.359,4.359,0,0,0-.98,1.593,3.789,3.789,0,0,0-.125,1.37l.006.243a3.037,3.037,0,0,0,1.788,2.8l.065.033c-.008.154-.017.3-.025.451-.029.5-.056.963-.04,1.44a3.093,3.093,0,0,0,3.051,3q1.532.02,3.065.021t3.047-.023a3.075,3.075,0,0,0,3.021-2.973c.018-.491-.011-.967-.042-1.471-.009-.147-.018-.3-.026-.447a3.058,3.058,0,0,0,1.8-2.25,6.415,6.415,0,0,0,.064-1.2l0-.263a2.832,2.832,0,0,0-1.113-2.352c-.2-.152-.22-.23-.151-.555a9.178,9.178,0,0,1,3.076-5.03m-6.08,13.344a.625.625,0,0,1-.622.68q-1.5.016-2.995.016t-2.994-.016a.624.624,0,0,1-.621-.681c-.011-.207-.006-.415,0-.622.012-.549.236-.774.772-.779q.564,0,1.126,0l1.72,0,1.72,0q.563,0,1.126,0c.536,0,.76.23.772.78,0,.207.009.415,0,.622m1.783-4.761c-.014.62-.222.83-.824.833q-.936.005-1.873,0l-2.724,0-2.706,0q-.9,0-1.791,0c-.672,0-.869-.2-.879-.875,0-.129,0-.258,0-.386.014-.62.222-.83.824-.833q1.019-.006,2.037,0h5.234q.911,0,1.823,0c.673,0,.87.2.88.875,0,.129,0,.258,0,.386m-8.489-14.8-.272,0c-.2,0-.4.008-.6.008-.293,0-.531-.009-.748-.029a.788.788,0,0,1-.629-.795.813.813,0,0,1,.609-.841,2.73,2.73,0,0,1,.555-.062,1.108,1.108,0,0,1,.844.292,1.244,1.244,0,0,1,.245.962c-.011.154-.011.309-.008.459m2.533,2.587h1.174v8.4H42.177Zm3.75-3.615c.073-.59.736-.678,1.125-.678H47.1a.967.967,0,0,1,1.064.727.892.892,0,0,1-.176.686.731.731,0,0,1-.512.287c-.21.018-.437.027-.716.027-.193,0-.389,0-.586-.008l-.258,0c0-.035,0-.069,0-.1a6.187,6.187,0,0,1,.018-.933m1.1,11.268c-.2.779-.2.779-.786.779l-.319,0V50.379c.061,0,.558,0,.745,0,.226,0,.452,0,.677-.009a3.433,3.433,0,0,0,2.879-1.686,3.321,3.321,0,0,0,.08-3.228,3.535,3.535,0,0,0-3.226-1.867,4.57,4.57,0,0,0-1.015.117,3.385,3.385,0,0,0-2.677,3.3c-.008.263-.006.526,0,.8v.014H42.139v-.007c0-.283,0-.567,0-.851a3.383,3.383,0,0,0-2.813-3.3A4.512,4.512,0,0,0,38.5,43.6a3.526,3.526,0,0,0-3.367,2.139,3.3,3.3,0,0,0,.283,3.073,3.446,3.446,0,0,0,2.773,1.565c.218.008.437.011.657.011.185,0,.371,0,.559,0l.207,0v8.474s-.268,0-.4,0c-.223,0-.4,0-.567-.015a.316.316,0,0,1-.038-.077,11.28,11.28,0,0,0-3.63-6.336,12.489,12.489,0,0,1-1.831-2,11.278,11.278,0,0,1,7.316-17.865,15.517,15.517,0,0,1,2.508-.213,11.4,11.4,0,0,1,8.273,3.385,10.956,10.956,0,0,1,3.28,8.149,11.9,11.9,0,0,1-4,8.522,11.135,11.135,0,0,0-3.5,5.665" transform="translate(-17.735 -18.619)" fill="#0069a9"/>
  </g>
</svg>
