<svg id="logo-white" xmlns="http://www.w3.org/2000/svg" xmlns:xlink="http://www.w3.org/1999/xlink" width="209.703" height="50" viewBox="0 0 209.703 50">
  <defs>
    <clipPath id="clip-path">
      <rect id="Rectangle_125" data-name="Rectangle 125" width="209.703" height="50" fill="none"/>
    </clipPath>
  </defs>
  <g id="Group_342" data-name="Group 342" clip-path="url(#clip-path)">
    <path id="Path_1057" data-name="Path 1057" d="M190.425,82.888V68.621a3.111,3.111,0,0,0,0-.409c-.051-.38.141-.448.475-.447q6.041.012,12.083,0c.317,0,.444.077.44.416-.016,1.251-.019,2.5,0,3.754.006.38-.15.443-.484.441-2.321-.012-4.642-.006-6.963-.006-.159,0-.319,0-.478,0-.479.009-.487.009-.488.476q-.006,2.594,0,5.188c0,.728-.005,1.456,0,2.184,0,.468.012.475.5.476,1.639,0,3.277,0,4.915,0,.159,0,.319,0,.478,0,.206,0,.27.1.269.3q-.006,1.98,0,3.959c0,.38-.269.293-.477.294-1.57,0-3.14,0-4.71,0-.978,0-.978,0-.978.959q0,3.379,0,6.758c0,.564-.024.567.554.566,2.435-.005,4.87,0,7.3,0,.611,0,.549-.016.549.554,0,1.183-.013,2.367.008,3.55.006.356-.1.458-.456.457-4-.012-8.01-.007-12.014-.009-.521,0-.525-.009-.525-.585q0-5.9,0-11.81v-2.8" transform="translate(-136.248 -48.487)" fill="#fff"/>
    <path id="Path_1058" data-name="Path 1058" d="M594.011,66.665a7.775,7.775,0,0,1,2.42.361,6.606,6.606,0,0,1,4.53,5.1c.117.461.363,1.013.149,1.389-.2.359-.823.25-1.259.341-.823.171-1.651.317-2.479.462-.521.092-.533.084-.611-.426a5.346,5.346,0,0,0-.727-2.039,2.278,2.278,0,0,0-2.267-1.088,2.073,2.073,0,0,0-1.83,1.326,4.809,4.809,0,0,0-.148,3.59,8.131,8.131,0,0,0,1.938,3.1,23.952,23.952,0,0,0,2.187,1.954A19.477,19.477,0,0,1,599.1,84a10.694,10.694,0,0,1,2.2,4.784,8.128,8.128,0,0,1-1.927,6.857,5.979,5.979,0,0,1-3.559,1.865,8.994,8.994,0,0,1-3.992-.145,6.528,6.528,0,0,1-3.783-2.743,10.65,10.65,0,0,1-1.672-5.059c-.033-.334.03-.478.415-.5,1.113-.053,2.223-.164,3.334-.239.546-.037.542-.022.626.5a8.049,8.049,0,0,0,.612,2.156,4.2,4.2,0,0,0,.663,1.028,2.52,2.52,0,0,0,3.7.2,3.483,3.483,0,0,0,1.08-3.032,5.616,5.616,0,0,0-1.9-3.668c-1.225-1.188-2.479-2.346-3.715-3.522a20.932,20.932,0,0,1-2.639-2.943,9.1,9.1,0,0,1-1.3-8.245c.872-2.96,3.364-4.644,6.772-4.639" transform="translate(-419.559 -47.7)" fill="#fff"/>
    <path id="Path_1059" data-name="Path 1059" d="M10.508,74.392a6.564,6.564,0,0,0-.778-2.485,2.275,2.275,0,0,0-2.091-1.165,2.066,2.066,0,0,0-1.949,1.14,4.6,4.6,0,0,0-.334,3.506,7.976,7.976,0,0,0,2.009,3.36,18.123,18.123,0,0,0,1.769,1.6,22.108,22.108,0,0,1,3.352,3.293,11.312,11.312,0,0,1,2.393,4.77,8.131,8.131,0,0,1-1.792,7.142,5.931,5.931,0,0,1-3.595,1.932A8.912,8.912,0,0,1,5.5,97.353,6.671,6.671,0,0,1,1.312,93.99,11.09,11.09,0,0,1,0,89.139a5.044,5.044,0,0,1,1.2-.131c.86-.08,1.722-.144,2.584-.2.505-.033.515-.022.6.461a9.51,9.51,0,0,0,.468,1.845,4.5,4.5,0,0,0,.828,1.4,2.516,2.516,0,0,0,3.7.169,3.608,3.608,0,0,0,1-3.508,5.8,5.8,0,0,0-1.851-3.19c-1.23-1.183-2.479-2.344-3.715-3.52A18.99,18.99,0,0,1,2.031,79.3a8.95,8.95,0,0,1-1.006-8.335,6.2,6.2,0,0,1,5.833-4.289,8.566,8.566,0,0,1,3.172.319,6.537,6.537,0,0,1,4.5,4.8,14.612,14.612,0,0,1,.289,1.47c.034.19.022.344-.24.39-1.34.235-2.677.486-4.07.741" transform="translate(0 -47.686)" fill="#fff"/>
    <path id="Path_1060" data-name="Path 1060" d="M308.623,67.758h2.5q.887,0,1.774,0c.651,0,.653,0,.839.6q1.1,3.545,2.2,7.091.413,1.334.825,2.668a.551.551,0,0,0,.23.375l1.138-3.686c.677-2.191,1.363-4.379,2.02-6.576a.563.563,0,0,1,.663-.484c1.342.027,2.684.01,4.027.011.131,0,.261.014.385.021a1.141,1.141,0,0,1-.152.746q-2.826,8.14-5.668,16.273a3.553,3.553,0,0,0-.2,1.2q.011,5.631,0,11.261c0,.159-.009.319,0,.478.015.222-.053.337-.3.336q-1.979-.009-3.959,0c-.249,0-.31-.116-.3-.333.009-.159,0-.318,0-.478q0-5.631,0-11.261a3.368,3.368,0,0,0-.192-1.132q-2.854-8.2-5.688-16.411a1.368,1.368,0,0,1-.158-.7" transform="translate(-220.825 -48.476)" fill="#fff"/>
    <path id="Path_1061" data-name="Path 1061" d="M133.692,82.982V68.715c0-.091,0-.182,0-.273,0-.719-.059-.663.66-.663h11.673c.114,0,.228.008.341,0,.24-.018.318.1.315.325-.006.432,0,.864,0,1.3,0,.819,0,1.638,0,2.458,0,.511-.01.519-.526.519q-3.516,0-7.031,0c-.848,0-.849,0-.849.869q0,3.447,0,6.895c0,.565-.022.568.555.566,1.684-.006,3.368,0,5.052,0,.613,0,.56.01.559.555,0,1.183-.016,2.367.008,3.55.008.372-.121.459-.466.457-1.707-.014-3.413-.008-5.12-.005-.58,0-.585.005-.585.6q0,5.7,0,11.4a3.216,3.216,0,0,0,0,.409c.043.334-.1.434-.424.429-1.024-.016-2.048,0-3.072-.009-.338,0-.764.145-.991-.067-.261-.244-.092-.69-.092-1.045q-.012-7-.005-13.994" transform="translate(-95.627 -48.496)" fill="#fff"/>
    <path id="Path_1062" data-name="Path 1062" d="M659.693,85.549V97.492c0,.159-.011.319,0,.478.021.253-.057.364-.337.361-1.3-.011-2.593-.007-3.89,0-.224,0-.341-.062-.323-.307.013-.181,0-.364,0-.546V73.66c0-.137,0-.273,0-.409,0-.612.032-.595-.6-.593-1.274,0-2.548-.008-3.822.007-.34,0-.478-.075-.47-.453.025-1.205.006-2.411.01-3.617,0-.478.009-.488.484-.489,1.842,0,3.685,0,5.528,0q3.822,0,7.644,0c.589,0,.594,0,.6.587q0,1.74,0,3.481c0,.473-.011.482-.493.484-1.251.005-2.5,0-3.754,0-.576,0-.58.006-.58.605q0,6.142,0,12.284" transform="translate(-465.284 -48.73)" fill="#fff"/>
    <path id="Path_1063" data-name="Path 1063" d="M251.967,85.533V73.522c0-.114,0-.228,0-.341-.01-.512-.01-.519-.528-.521-1.274,0-2.548,0-3.822,0-.519,0-.525-.009-.527-.515q-.006-1.774,0-3.549c0-.477.009-.486.485-.487q2.832-.006,5.665,0,3.787,0,7.575,0c.516,0,.523.008.525.52q.007,1.774,0,3.549c0,.472-.011.481-.494.483-1.228,0-2.457,0-3.685,0-.711,0-.648-.043-.648.675q0,10.715,0,21.429c0,1.046-.011,2.093.007,3.139.005.314-.064.438-.41.432-1.205-.021-2.411-.01-3.617-.007-.553,0-.527.024-.526-.509q0-2.252,0-4.5Z" transform="translate(-176.799 -48.73)" fill="#fff"/>
    <path id="Path_1064" data-name="Path 1064" d="M561.246,83.281V97.472a2.839,2.839,0,0,0,0,.409c.056.382-.132.455-.471.451-1.228-.015-2.456-.013-3.684,0-.307,0-.485-.064-.432-.414a2.307,2.307,0,0,0,0-.341q0-14.361,0-28.723c0-.842-.133-.745.768-.75,1.023,0,2.047,0,3.07,0,.841,0,.74-.068.74.715q0,3.787,0,7.573v6.891" transform="translate(-398.304 -48.728)" fill="#fff"/>
    <path id="Path_1065" data-name="Path 1065" d="M70.633,30.269q-16.931,0-33.861.011a1.973,1.973,0,0,1-1.356-.478c-2.475-2.04-4.969-4.058-7.458-6.082-.471-.383-.476-.382-.956.007q-3.76,3.057-7.513,6.123a1.712,1.712,0,0,1-1.167.428q-8.124-.02-16.248-.009c-.182,0-.364,0-.545-.02a.173.173,0,0,1-.162-.181c-.008-.129.036-.229.175-.238.2-.014.409-.017.613-.017q7.953,0,15.906.008a1.8,1.8,0,0,0,1.24-.427c2.58-2.128,5.177-4.235,7.769-6.349.414-.338.416-.336.857.024q3.887,3.171,7.769,6.349a1.718,1.718,0,0,0,1.181.4q7.612-.017,15.224-.007h52.225l.614,0c.167,0,.328.012.316.245-.01.187-.145.2-.285.207-.2,0-.409,0-.614,0H70.633" transform="translate(-0.977 -16.31)" fill="#d89f15"/>
    <path id="Path_1066" data-name="Path 1066" d="M521.512,47.91H492.775c-.2,0-.41,0-.614-.005-.151-.006-.262-.064-.251-.245a.206.206,0,0,1,.22-.205c.159-.01.318-.009.477-.009h57.952c.114,0,.228,0,.341,0,.154.009.343-.017.351.215.01.286-.216.237-.387.246s-.364,0-.546,0H521.512" transform="translate(-351.977 -33.947)" fill="#daa420"/>
    <path id="Path_1067" data-name="Path 1067" d="M696.323,114.954c0-.818-.027-1.636.007-2.453a2.042,2.042,0,0,1,1.732-1.912,2.07,2.07,0,0,1,2.244,1.165,3.593,3.593,0,0,1,.2,1.606c0,.1-.037.207-.129.212-.362.019-.725.022-1.086.013-.094,0-.14-.106-.143-.2,0-.182,0-.364-.005-.545-.016-.661-.273-.978-.783-.972-.486.006-.732.3-.747.931-.013.568,0,1.136,0,1.7q0,1.226,0,2.453a3.5,3.5,0,0,0,.017.476.746.746,0,0,0,.7.7.771.771,0,0,0,.8-.688,5.276,5.276,0,0,0,.012-.885c-.012-.274.055-.417.373-.41,1.219.025.97-.12.994.948a2.22,2.22,0,0,1-.495,1.585,2.107,2.107,0,0,1-2.286.625,2.039,2.039,0,0,1-1.4-1.9c-.02-.817,0-1.635,0-2.453Z" transform="translate(-498.235 -79.105)" fill="#fff"/>
    <path id="Path_1068" data-name="Path 1068" d="M392.589,49.831c-.217-.208-.106-.473-.107-.708q-.012-7.367-.006-14.733,0-16.677.005-33.354c0-.238-.1-.5.09-.716a.972.972,0,0,1,.6-.069q3.242-.007,6.483,0a1.316,1.316,0,0,1,.605.053l-.008,0a26.775,26.775,0,0,1,.048,3.18c0,1.4.063,2.8-.038,4.2-.5-.139-.362-.565-.367-.888-.023-1.683-.008-3.368-.011-5.051,0-1.05-.018-1.067-1.065-1.069q-2.389,0-4.778,0c-1.067,0-1.089.025-1.09,1.123q0,13.447,0,26.894,0,9.864,0,19.727a4.117,4.117,0,0,1-.073,1.154.366.366,0,0,1-.285.261" transform="translate(-280.815 -0.17)" fill="#6f5106"/>
    <path id="Path_1069" data-name="Path 1069" d="M476.947.531A1.532,1.532,0,0,1,477,1.2q0,24.074,0,48.149c0,.182,0,.364-.009.545s-.131.214-.284.186a.5.5,0,0,1-.077-.257c-.016-1.773-.006-3.546-.006-5.32q0-21.283,0-42.565a3.374,3.374,0,0,1,.1-1.283.216.216,0,0,1,.217-.129" transform="translate(-341.034 -0.379)" fill="#382d12"/>
    <path id="Path_1070" data-name="Path 1070" d="M427.607,148.566l-7.371-.024c-.273,0-.547.017-.819,0-.308-.024-.383.108-.381.4.011,1.456,0,2.912,0,4.368,0,.66,0,1.32,0,1.979,0,.128.031.282-.152.331a.444.444,0,0,1-.27-.281,13.356,13.356,0,0,1-.071-2.382c-.013-1.3-.025-2.594.007-3.891.018-.737.232-.984.923-.993,2.548-.036,5.1-.022,7.645-.007a.856.856,0,0,1,.635.2c.09.171-.021.244-.15.309" transform="translate(-299.472 -105.93)" fill="#554725"/>
    <path id="Path_1071" data-name="Path 1071" d="M419.812,7.861l.013-7.4c.25.161.128.41.129.616.009,2,0,3.991.006,5.987,0,.684-.072.639.6.638q3.98-.008,7.96-.019c.129.062.24.133.156.3a1.109,1.109,0,0,1-.837.209c-2.387.008-4.774.011-7.161,0-.315,0-.7.091-.869-.331" transform="translate(-300.39 -0.328)" fill="#594922"/>
    <path id="Path_1072" data-name="Path 1072" d="M733.968,137.614c0,.135,0,.27,0,.4,0,.093-.012.22-.1.225-.358.021-.717.015-1.076.012-.035,0-.1-.052-.1-.081,0-.381-.006-.762.01-1.143,0-.1.108-.128.2-.129.112,0,.225,0,.337,0,.8.012.717-.114.724.713" transform="translate(-524.265 -97.957)" fill="#030303"/>
    <path id="Path_1073" data-name="Path 1073" d="M458.512.151a.54.54,0,0,1-.124.018.709.709,0,0,1-.5.174c-2.316.009-4.631.054-6.947-.019a.13.13,0,0,1-.044-.217c.1-.131.244-.1.375-.1q3.378,0,6.756,0c.17,0,.373-.068.488.141" transform="translate(-322.6 0)" fill="#414040"/>
    <path id="Path_1074" data-name="Path 1074" d="M400.444,173.705l.127.113a2.993,2.993,0,0,1-.4.052q-3.357.005-6.714,0a.935.935,0,0,1-.529-.074l.159-.106a.862.862,0,0,1,.632-.193c2.009-.016,4.017-.013,6.026,0a1,1,0,0,1,.7.209" transform="translate(-281.154 -124.136)" fill="#362703"/>
    <path id="Path_1075" data-name="Path 1075" d="M400.553.141l-7.686.017c.12-.2.319-.139.489-.139q3.385-.006,6.771,0c.15,0,.323-.048.427.123" transform="translate(-281.11 -0.008)" fill="#414040"/>
    <path id="Path_1076" data-name="Path 1076" d="M458.1,173.7c0,.038,0,.075,0,.113q-2.216.016-4.431.031c-.841,0-1.683.007-2.524,0-.183,0-.415.093-.535-.156a.693.693,0,0,1,.224-.146,20.3,20.3,0,0,1,2.914-.069c1.155-.018,2.31-.011,3.465,0,.311,0,.643-.042.888.232" transform="translate(-322.423 -124.113)" fill="#362704"/>
    <path id="Path_1077" data-name="Path 1077" d="M450.538.377l.03.162a1.264,1.264,0,0,1,.194.909q.011,2.689,0,5.378c0,.332.057.691-.243.952l-.14-.155c0-2.191,0-4.382.012-6.573,0-.224-.14-.5.148-.673" transform="translate(-322.246 -0.27)" fill="#171002"/>
    <path id="Path_1078" data-name="Path 1078" d="M450.61,156.409l-.143.011a3.77,3.77,0,0,1-.041-1.015c-.006-1.975,0-3.95,0-5.924l.142-.159a.96.96,0,0,1,.236.817q.016,2.748,0,5.5a1.113,1.113,0,0,1-.19.773" transform="translate(-322.285 -106.845)" fill="#171002"/>
    <path id="Path_1079" data-name="Path 1079" d="M506.152,80.606c0-2.251-.007-4.5,0-6.754A7.2,7.2,0,0,0,496.09,67.18a6.828,6.828,0,0,0-4.389,6.635c-.03,2.751-.006,5.5-.006,8.255h.011c0,2.888-.073,5.779.02,8.664a6.718,6.718,0,0,0,4.2,6.2,6.867,6.867,0,0,0,7.444-.9,7.026,7.026,0,0,0,2.781-5.875c-.009-3.184,0-6.367,0-9.551m-4.771,9.956a2.623,2.623,0,0,1-5.184.139,4.722,4.722,0,0,1-.06-.746q-.005-7.952,0-15.9a3.286,3.286,0,0,1,.2-1.271,2.664,2.664,0,0,1,2.809-1.6,2.606,2.606,0,0,1,2.237,2.322c.025.248.017.5.017.75q0,3.891,0,7.781t0,7.781a6.932,6.932,0,0,1-.02.75" transform="translate(-351.813 -47.635)" fill="#fff"/>
    <path id="Path_1080" data-name="Path 1080" d="M78.264,94.19q-.844-5.041-1.689-10.083-.93-5.545-1.863-11.091c-.253-1.5-.522-3-.754-4.5-.054-.351-.195-.444-.524-.432-.568.022-1.137.006-1.706.006-1.206,0-2.412,0-3.618,0-.5,0-.5.008-.6.509-.013.067-.016.135-.027.2q-.383,2.251-.767,4.5-.914,5.376-1.828,10.751c-.667,3.919-1.344,7.837-2,11.758a22.2,22.2,0,0,0-.379,2.5h3.932c.788,0,.777,0,.9-.784q.444-2.828.909-5.653c.085-.52.1-.522.636-.523q1.809,0,3.617,0c.586,0,.592,0,.678.572.2,1.3.391,2.607.589,3.91.11.719.229,1.436.338,2.155.03.2.087.329.332.327,1.476-.008,2.952,0,4.509,0-.239-1.432-.463-2.776-.688-4.119M72.332,86.9h-3.29c.134-1,.258-1.959.394-2.918Q69.963,80.24,70.5,76.5c.035-.247.09-.491.136-.736a10.916,10.916,0,0,1,.306,1.171c.225,1.5.4,2.378.616,3.883q.406,2.8.8,5.6a.673.673,0,0,1-.02.489" transform="translate(-44.729 -48.714)" fill="#fff"/>
    <path id="Path_1081" data-name="Path 1081" d="M718.734,112.513a2.055,2.055,0,0,0-2.159-2,2.106,2.106,0,0,0-2,2.16c-.009.749,0,1.5,0,2.247,0,.772-.007,1.544,0,2.315a2.054,2.054,0,0,0,2,2.145,2.01,2.01,0,0,0,2.165-1.969c.06-1.632.059-3.269,0-4.9m-1.342,2.465c0,.681,0,1.362,0,2.043a2.223,2.223,0,0,1-.03.474.765.765,0,0,1-.723.612.757.757,0,0,1-.761-.643,2.1,2.1,0,0,1-.026-.406q0-2.111,0-4.222a2.159,2.159,0,0,1,.008-.272.722.722,0,0,1,.742-.729.734.734,0,0,1,.785.76c.02.2.006.408.007.612q0,.885,0,1.771" transform="translate(-511.297 -79.077)" fill="#fff"/>
    <path id="Path_1082" data-name="Path 1082" d="M428.4,131.251c-.105.171-.278.126-.43.126q-3.956,0-7.913,0c-.585,0-.611-.031-.616-.624-.007-.978,0-1.956-.005-2.933,0-.344.129-.495.481-.494,2.706.006,5.412,0,8.118.009a.858.858,0,0,1,.251.084.147.147,0,0,1-.045.22,1.9,1.9,0,0,1-1,.143c-2.137.005-4.275,0-6.412,0-.884,0-.926.049-.933.921,0,.386,0,.773,0,1.159,0,1.03.009,1.039,1.012,1.04,2.069,0,4.138,0,6.208,0a3.4,3.4,0,0,1,1.017.075.452.452,0,0,1,.268.268" transform="translate(-300.118 -91.106)" fill="#504428"/>
    <path id="Path_1083" data-name="Path 1083" d="M428.3,38.2c-.906.011-1.811.03-2.717.032q-2.753.007-5.506,0c-.59,0-.611-.022-.617-.612-.009-.952,0-1.9,0-2.855a.579.579,0,0,1,.082-.39,2.132,2.132,0,0,1,.874-.056c2.61,0,5.219-.02,7.828.009a.14.14,0,0,1,.061.214,1.569,1.569,0,0,1-1.051.187c-2.139.007-4.278,0-6.417.005-.871,0-.917.055-.924.933,0,.478.021.957-.006,1.433-.031.562.209.764.762.759,1.8-.016,3.6-.02,5.393,0a6.722,6.722,0,0,1,2.166.12.162.162,0,0,1,.074.219" transform="translate(-300.133 -24.547)" fill="#483e25"/>
    <path id="Path_1084" data-name="Path 1084" d="M419.695,105.792c-.007-1.673-.009-3.346-.027-5.019,0-.329.129-.44.442-.437,1,.009,1.994,0,2.991,0,1.609,0,3.218,0,4.827.005.212,0,.457-.1.632.119a.59.59,0,0,1-.215.141c-1.953.117-3.908.022-5.862.05-.546.008-1.092,0-1.637,0-.248,0-.508-.034-.682.209a27.207,27.207,0,0,0-.078,4.13c0,.408.331.433.635.439.725.013,1.449,0,2.174.005,1.517,0,3.034,0,4.551,0a1.649,1.649,0,0,1,.988.166.142.142,0,0,1-.009.225c-2.846.05-5.692.013-8.537.02a.5.5,0,0,1-.191-.061" transform="translate(-300.287 -71.783)" fill="#3c382e"/>
    <path id="Path_1085" data-name="Path 1085" d="M428.291,61.086c-.907.011-1.815.029-2.722.032q-2.758.008-5.517,0c-.592,0-.6-.009-.6-.611-.005-1.34,0-2.679,0-4.018a.675.675,0,0,1,.082-.458c.125-.073.243-.093.338.048.085,1.267,0,2.536.032,3.8.017.785.07.849.863.852,2.154.009,4.308,0,6.462.005a2.072,2.072,0,0,1,1,.128.154.154,0,0,1,.063.218" transform="translate(-300.128 -40.052)" fill="#4b4026"/>
    <path id="Path_1086" data-name="Path 1086" d="M420.077,55.813l-.331-.024c.147-.212.37-.135.563-.135q3.887-.008,7.774,0c.186,0,.416-.1.546.145a.35.35,0,0,1-.3.213c-2.4-.016-4.8,0-7.2-.011a1.5,1.5,0,0,1-1.044-.189" transform="translate(-300.343 -39.809)" fill="#412f03"/>
    <path id="Path_1087" data-name="Path 1087" d="M428.548,34.219q-3.034-.012-6.068-.024c-.909,0-1.818,0-2.728,0,.152-.2.373-.131.568-.131q3.882-.006,7.764,0c.188,0,.417-.093.551.142l-.087.012" transform="translate(-300.347 -24.362)" fill="#594005"/>
    <path id="Path_1088" data-name="Path 1088" d="M419.763,119.49q3.988,0,7.976,0c.272,0,.544-.017.817-.026l.087.017c-.11.215-.315.143-.483.143q-3.95.007-7.9,0c-.173,0-.37.053-.5-.135" transform="translate(-300.355 -85.481)" fill="#584005"/>
    <path id="Path_1089" data-name="Path 1089" d="M450.1,106.142a.639.639,0,0,1-.087-.017l-.052-.138a.585.585,0,0,1-.174-.426,41.631,41.631,0,0,1,.049-4.507.773.773,0,0,1,.147-.219.41.41,0,0,0,.1-.013,13.381,13.381,0,0,1,.044,2.017c0,1.1-.018,2.2-.029,3.3" transform="translate(-321.808 -72.142)" fill="#171002"/>
    <path id="Path_1090" data-name="Path 1090" d="M449.942,56.343l.135-.134c.075,1.593.019,3.187.03,4.781,0,.115-.022.223-.154.265l-.025-.172c-.04-.055-.1-.1-.107-.171a25.7,25.7,0,0,1-.017-4.339.384.384,0,0,1,.138-.229" transform="translate(-321.79 -40.219)" fill="#181102"/>
    <path id="Path_1091" data-name="Path 1091" d="M449.919,127.839q.014-.093.027-.186a.246.246,0,0,1,.152.269c-.014,1.188.055,2.376-.038,3.563l-.14-.161a.969.969,0,0,1-.181-.766,7.889,7.889,0,0,1,.179-2.719" transform="translate(-321.782 -91.34)" fill="#181103"/>
    <path id="Path_1092" data-name="Path 1092" d="M449.983,34.621l.087-.012c.073,1.181.018,2.362.03,3.543,0,.115-.018.227-.152.269l-.027-.168a5.645,5.645,0,0,1-.178-2.322,1.566,1.566,0,0,1,.187-1.169l.054-.141" transform="translate(-321.782 -24.764)" fill="#181103"/>
    <path id="Path_1093" data-name="Path 1093" d="M428.9,100.986c-.521-.012-1.042-.034-1.563-.033q-3.5.006-7.007.024c.134-.226.358-.159.552-.159q4.024,0,8.048.007l-.03.161" transform="translate(-300.763 -72.132)" fill="#3f3e3d"/>
    <path id="Path_1094" data-name="Path 1094" d="M417.324,49.159q.009-23.915.005-47.83c0-.25-.006-.5-.009-.75q-3.333,0-6.667,0a1.482,1.482,0,0,0-.8.1q0,3.25,0,6.5a2.226,2.226,0,0,1-.048.739c-.156.2-.377.118-.57.119q-3.845.008-7.691,0c-.2,0-.411.052-.589-.1-.206-.21-.117-.474-.118-.714-.007-1.933,0-3.866,0-5.8,0-.756,0-.759-.732-.76q-2.866,0-5.731,0c-1.012,0-.908-.082-.908.922q0,23.88,0,47.76c0,.2,0,.409.007.614l7.356.014c.008-.249.022-.5.023-.748,0-1.93,0-3.86,0-5.791,0-.646.027-.677.63-.678q3.918-.007,7.835,0c.171,0,.37-.066.5.125.015.249.041.5.042.746q.007,3.171.006,6.342c.295,0,.59.007.884.008l6.464.02c.235-.252.119-.562.119-.843m-16.231-38.4c-.007-.325.091-.443.422-.431.567.022,1.135.006,1.7.006q2.861,0,5.722,0a1.709,1.709,0,0,1,.739.071q0,1.745-.009,3.491c-1.43.009-2.86.02-4.29.025-1.272,0-2.543-.008-3.814.007-.336,0-.484-.068-.474-.445.026-.907.021-1.817,0-2.724m5.649,29.66c-1.726,0-3.453-.006-5.179.007-.337,0-.482-.069-.471-.447.028-.885.017-1.771,0-2.657,0-.293.032-.453.4-.45,2.725.023,5.45.026,8.176.034q0,1.743,0,3.485c-.976.009-1.952.025-2.928.027m2.336-6.091h-7.37c-.688,0-.608.017-.609-.641q0-2.218,0-4.435c.1-.123.247-.092.379-.092q3.909,0,7.818,0c.131,0,.277-.037.373.1q0,2.5.008,4.992a1.27,1.27,0,0,1-.6.075m.591-13.058-7.637.026c-.2,0-.41-.01-.614,0-.232.013-.322-.079-.321-.315.007-1.432,0-2.864,0-4.3a.3.3,0,0,1,.164-.275c1.179.011,2.357.026,3.536.03,1.406.005,2.813,0,4.219,0a1.106,1.106,0,0,1,.663.087q-.007,2.369-.014,4.739" transform="translate(-281.532 -0.409)" fill="#d79c0d"/>
  </g>
</svg>
