<svg id="Patented" xmlns="http://www.w3.org/2000/svg" xmlns:xlink="http://www.w3.org/1999/xlink" width="50" height="50" viewBox="0 0 50 50">
  <defs>
    <clipPath id="clip-path">
      <rect id="Rectangle_219" data-name="Rectangle 219" width="50" height="50" fill="#0069a9"/>
    </clipPath>
  </defs>
  <g id="Group_1018" data-name="Group 1018" clip-path="url(#clip-path)">
    <path id="Path_1468" data-name="Path 1468" d="M49.281,43.828q-1.7-3.387-3.388-6.784a1.075,1.075,0,0,1,.052-.824,9.958,9.958,0,0,0,.5-6.818,9.325,9.325,0,0,0-2.275-4.013,1.7,1.7,0,0,1-.5-1.29q.019-9.682.006-19.364A4.418,4.418,0,0,0,41.116.443a5.241,5.241,0,0,0-.935-.319c-.145-.04-.29-.08-.432-.124H3.935a5.233,5.233,0,0,0-2.28.991A4.307,4.307,0,0,0,.07,3.763.616.616,0,0,1,0,3.957l0,0V9.479a1.509,1.509,0,0,0,1.561.941l.112,0c.588-.019,1.176-.025,1.768-.025.428,0,.858,0,1.291.006s.876.006,1.319.006h.231V36.424h-2.1c-.256,0-.511,0-.766.006s-.515.006-.772.006c-.328,0-.656-.005-.984-.022-.052,0-.1,0-.155,0A1.472,1.472,0,0,0,0,37.367V42.99c.09.213.172.432.255.65a6.3,6.3,0,0,0,.653,1.4,4.342,4.342,0,0,0,3.816,1.8h7.156q6.1,0,12.2.013a2.863,2.863,0,0,1,1.216.293c1.451.7,2.893,1.421,4.335,2.141L31.067,50h.589a2.364,2.364,0,0,0,1.121-1.331c.066-.143.125-.3.187-.455a2.406,2.406,0,0,1,.785-1.242,1.529,1.529,0,0,1,.835-.191c.185,0,.379.016.572.031s.359.029.54.029h.317c.3,0,1.491.008,1.787.008.477,0,.953,0,1.429-.021l.1,0a1.046,1.046,0,0,1,1.125.759,5.171,5.171,0,0,0,.319.667c.1.182.2.365.278.554A2.123,2.123,0,0,0,42.1,50h.586l1.62-.809c1.538-.769,3.075-1.538,4.62-2.291A1.881,1.881,0,0,0,50,45.856v-.6ZM2.494,7.891s0-1.907,0-2.113c0-.469-.006-.938.009-1.406A1.922,1.922,0,0,1,4.407,2.5h.008a1.868,1.868,0,0,1,1.9,1.864c.016.751.012,1.5.008,2.273,0,.337,0,1.256,0,1.256ZM6.312,42.513a1.9,1.9,0,0,1-3.8.059c-.03-.777-.024-1.541-.017-2.35,0-.346.006-.7.006-1.052v-.231H6.324s0,1.637,0,1.876c0,.556.006,1.132-.014,1.7m18.167,1.338a.76.76,0,0,1-.75.5q-5.3-.013-10.591-.01H9.045a1.714,1.714,0,0,1-.187-.012l-.39-.029.081-.275a11.569,11.569,0,0,0,.28-3.634c-.011-.385-.022-.769-.022-1.153.019-11.653.013-23.3,0-33.159,0-.75-.038-1.486-.079-2.266-.019-.358-.037-.717-.052-1.08l-.01-.241H38.888a2,2,0,0,1,2.29,2.261v18.31l-.3-.1c-.153-.049-.3-.1-.444-.151a5.281,5.281,0,0,0-.857-.251l-.549-.1a13.374,13.374,0,0,0-2.28-.279q-5.9-.024-11.8-.02l-10.865,0a2.112,2.112,0,0,0-.443.031,1.244,1.244,0,0,0,.137,2.447,2.6,2.6,0,0,0,.325.016H30.02l-.2.345c-.019.033-.033.063-.047.088a.728.728,0,0,1-.116.182,9.6,9.6,0,0,0-1.857,2.785.675.675,0,0,1-.713.429H21.417q-3.564,0-7.128,0a2.973,2.973,0,0,0-.719.072,1.232,1.232,0,0,0,.244,2.41c.1.007.206.009.311.009H26.969s0,.594,0,.771c0,.38-.009.739.008,1.1a9.723,9.723,0,0,0,.84,3.387,1.187,1.187,0,0,1-.007.909c-.731,1.5-1.476,2.987-2.22,4.476q-.555,1.11-1.108,2.221m6.3,3.226-4.1-2.048L29.6,39.182l3.875,2.5Zm4.174-2.764.381-.768c.2-.4.384-.778.587-1.148a.7.7,0,0,1,.525-.319c.222-.014.4-.025.544-.025.689,0,.831.285,1.212,1.048.088.178.175.357.267.548l.321.663Zm1.993-4.723-.164,0a7.461,7.461,0,0,1-.1-14.919l.161,0A7.457,7.457,0,0,1,44.34,32,7.3,7.3,0,0,1,42.3,37.237a7.589,7.589,0,0,1-5.357,2.354m6.032,7.488-2.7-5.4,3.88-2.491,2.922,5.838Z" transform="translate(0 -0.001)" fill="#0069a9"/>
    <path id="Path_1469" data-name="Path 1469" d="M28.906,36.712l8.778,0q6.422,0,12.844,0a2.7,2.7,0,0,0,.584-.06,1.179,1.179,0,0,0,.905-1,1.211,1.211,0,0,0-.262-.986,1.477,1.477,0,0,0-1.134-.44q-2.54,0-5.079,0H28.953a4.716,4.716,0,0,0-.472.017,1.25,1.25,0,0,0-.791,2.044,1.609,1.609,0,0,0,1.215.431" transform="translate(-14.714 -18.376)" fill="#0069a9"/>
    <path id="Path_1470" data-name="Path 1470" d="M39.007,19.576q1.332.008,2.664.006l3.364,0,4.228,0c.752,0,1.5,0,2.255-.011a1.292,1.292,0,0,0,.945-.374,1.229,1.229,0,0,0,.325-.916c-.025-.748-.583-1.194-1.5-1.195l-5.227,0-6.894,0a2.718,2.718,0,0,0-.541.048,1.249,1.249,0,0,0-.648,2.059,1.4,1.4,0,0,0,1.025.381" transform="translate(-20.223 -9.175)" fill="#0069a9"/>
    <path id="Path_1471" data-name="Path 1471" d="M36.994,75.351a2.868,2.868,0,0,0-.848-.1q-1.783-.006-3.566-.006l-3.565,0a4.145,4.145,0,0,0-.511.024,1.273,1.273,0,0,0-.9.514,1.245,1.245,0,0,0,1.122,1.95q.775.009,1.55.008l2.052,0v0h4.164a1.458,1.458,0,0,0,.171-.016,1.232,1.232,0,0,0,1.118-1.106,1.205,1.205,0,0,0-.786-1.261" transform="translate(-14.706 -40.408)" fill="#0069a9"/>
    <path id="Path_1472" data-name="Path 1472" d="M77.835,63.295a1.248,1.248,0,0,0-.164-.011,1.335,1.335,0,0,0-1.037.571c-.629.761-1.262,1.519-1.91,2.295l-.93,1.113-.844-1.115c-.066-.087-.131-.175-.2-.263-.151-.206-.293-.4-.454-.581a1.228,1.228,0,0,0-1.687-.183,1.2,1.2,0,0,0-.282,1.657c.885,1.243,1.694,2.322,2.473,3.3a1.205,1.205,0,0,0,.94.468,1.136,1.136,0,0,0,.87-.406c1.685-1.949,2.945-3.464,4.088-4.912a1.126,1.126,0,0,0,.165-1.149,1.289,1.289,0,0,0-1.034-.781" transform="translate(-37.654 -33.986)" fill="#0069a9"/>
  </g>
</svg>
