<svg xmlns="http://www.w3.org/2000/svg" width="42.015" height="65" viewBox="0 0 42.015 65">
  <g id="Wide-Range_" data-name="Wide-Range " transform="translate(-401.5 -345.384)">
    <path id="Path_1473" data-name="Path 1473" d="M407.985,419.724l-.137-.066a1.555,1.555,0,0,0-.153-.069,2.725,2.725,0,0,1-1.916-2.7,5.806,5.806,0,0,0-1.212-3.607c-.59-.81-1.146-1.662-1.685-2.487l-.275-.421a7.127,7.127,0,0,1-1.105-4.133c.016-.791.051-1.581.086-2.371.038-.876.078-1.782.09-2.671.02-1.431.018-2.862.016-4.294,0-.966,0-1.933,0-2.9a5.449,5.449,0,0,1,4.365-5.4,7.7,7.7,0,0,1,1.086-.128l.327-.024,0-3.294q0-3.713.005-7.426a3.594,3.594,0,0,1,2.879-3.627,4.976,4.976,0,0,1,1.043-.082c.579,0,1.157,0,1.74,0l1.99,0c.009-.1.016-.2.016-.3l0-.964c0-1.093.008-2.187-.009-3.28a1.516,1.516,0,0,1,.664-1.4l.062-.041h5.841l.058.034a1.494,1.494,0,0,1,.718,1.433c-.017,1.116-.014,2.232-.01,3.374l0,1.14h2.473c.449,0,.9,0,1.346,0a3.638,3.638,0,0,1,3.858,3.843c.008.88.006,1.761,0,2.642v1.435l.207-.073a3.814,3.814,0,0,1,1.25-.213,3.654,3.654,0,0,1,1.522,6.975c-.949.44-1.914.82-2.733,1.135-.239.092-.27.166-.253.373a7.437,7.437,0,0,1,.012.764c0,.045,0,.089,0,.135l.676,0c.193,0,.385,0,.578,0l.2,0,.492,0a5.4,5.4,0,0,1,.991.072,3.442,3.442,0,0,1,2.931,2.825,3.508,3.508,0,0,1-1.4,3.686l-.049.038a3.725,3.725,0,0,1-.834,5.148,3.59,3.59,0,0,1,.536,3.167,3.658,3.658,0,0,1-3.463,2.625l-.106,0c-.059,0-.286-.008-.338-.008a.96.96,0,0,0-.212.018.443.443,0,0,0-.243.145,3.684,3.684,0,0,1-3.456,2.4.659.659,0,0,0-.4.2,13.406,13.406,0,0,1-3.938,3.175.855.855,0,0,0-.523.895c.016.407.011.819,0,1.216l0,.2a2.782,2.782,0,0,1-1.97,2.765.592.592,0,0,0-.1.053l-.13.071Zm-.719-29.09a3.413,3.413,0,0,0-1.725.49,3.337,3.337,0,0,0-1.656,3.185c.02,2.313.012,4.717-.022,7.349-.011.829-.042,1.658-.073,2.488s-.063,1.669-.073,2.5a4.479,4.479,0,0,0,.753,2.554c.573.873,1.286,1.959,2.008,2.969a7.47,7.47,0,0,1,1.493,4.521.913.913,0,0,0,.167.657.936.936,0,0,0,.672.174h9.8c.589-.013.787-.205.8-.733l0-.182a6.883,6.883,0,0,0-.006-.741,3.3,3.3,0,0,1,1.923-3.449,11.86,11.86,0,0,0,1.551-1.048l.306-.23H423.1q-1.723,0-3.445-.009t-3.443-.009c-1.842,0-3.352.012-4.751.038h-.083a3.817,3.817,0,0,1-3.918-3.993c.05-2.007.041-4.052.032-6.028,0-1.071-.009-2.141-.006-3.211a.56.56,0,0,0-.287-.526A6.67,6.67,0,0,1,406,396.2a1.065,1.065,0,0,1,.263-1.582,1.074,1.074,0,0,1,.585-.183,1.267,1.267,0,0,1,.955.523,2.848,2.848,0,0,0,.757.707,6.9,6.9,0,0,0,5.274.654,2.771,2.771,0,0,0,2.022-1.726,1.253,1.253,0,0,0,.084-1.039c-.129-.22-.448-.363-.976-.438a13.823,13.823,0,0,1-5.793-1.879A3.445,3.445,0,0,0,407.266,390.634Zm17.607,18.312q.8,0,1.6-.009a1.354,1.354,0,0,0,1.362-.994,3.656,3.656,0,0,1-.541-5.572,3.647,3.647,0,0,1,0-5.12,3.759,3.759,0,0,1-1.028-2.949,3.563,3.563,0,0,1,1.568-2.63.586.586,0,0,0,.1-.339q.018-6.723.007-13.445c0-1.139-.546-1.671-1.712-1.672l-11.712,0q-1.667,0-3.334,0a1.4,1.4,0,0,0-1.507,1.409c-.014,3.992-.008,7.925,0,11.245a.324.324,0,0,0,.082.185,10.414,10.414,0,0,0,3.841,1.6c.725.1,1.453.231,2.158.361l.118.022a2.691,2.691,0,0,1,2.13,1.763,3.869,3.869,0,0,1,.177.736c.005.032.011.063.016.1.214-.016.429-.025.639-.025a7.331,7.331,0,0,1,5.408,2.3,7.272,7.272,0,0,1-5.313,12.263,8.147,8.147,0,0,1-.915-.052,7.287,7.287,0,0,1-5.238-3.348,7.185,7.185,0,0,1-.829-5.985l-2.283-.28v8.669c0,1.256.509,1.769,1.756,1.77h11.5Zm5.161-5.475c-.056,0-.112,0-.167.005a1.444,1.444,0,0,0-1.416,1.426,1.422,1.422,0,0,0,1.356,1.473c.163.015.328.022.493.022a5.378,5.378,0,0,0,.741-.051,1.387,1.387,0,0,0,1.181-1.3,1.411,1.411,0,0,0-.962-1.483,3.089,3.089,0,0,0-.621-.094l-.163-.015-.13.022Zm-11.177-7.619a4.919,4.919,0,0,0-.956.095.84.84,0,0,0-.449.327,5.038,5.038,0,0,1-2.6,2.025.737.737,0,0,0-.5.469,4.889,4.889,0,0,0,4.472,6.861,4.888,4.888,0,0,0,.036-9.776Zm12.468,5.411c.107,0,.214,0,.32-.007a1.45,1.45,0,0,0,.061-2.9c-.316-.022-.635-.033-.953-.033s-.642.011-.957.034a1.448,1.448,0,0,0,.034,2.89c.112.008.223.01.335.01s.5-.007.6-.007h.247v.008Zm-.135-8.05q-.709,0-1.416.032a1.449,1.449,0,0,0,.061,2.892c.167.008.335.009.5.009l.836-.006.841.005c.166,0,.333,0,.5-.008a1.449,1.449,0,0,0,.083-2.891C432.137,393.224,431.664,393.213,431.19,393.213Zm.419-9.361a1.607,1.607,0,0,0-.487.076c-.968.3-.968.3-.968,1.316V387.5c.173-.075.344-.146.512-.217.631-.265,1.226-.515,1.787-.818a1.236,1.236,0,0,0,.59-1.333A1.429,1.429,0,0,0,431.609,383.852Zm-11.335-9.873v-3.724h-2.92v.55c0,1.053,0,2.086,0,3.119a.415.415,0,0,0,0,.055Z" transform="translate(0 -9.34)" fill="#0069a9"/>
    <path id="Path_1474" data-name="Path 1474" d="M425.964,398.149a7.053,7.053,0,0,1-5.024-2.11,6.976,6.976,0,0,1-2.033-4.989,7.108,7.108,0,0,1,7.086-7.032,7.066,7.066,0,1,1,0,14.132Zm.029-11.932a4.885,4.885,0,0,0-4.877,4.854,4.859,4.859,0,0,0,4.857,4.875,4.886,4.886,0,0,0,4.888-4.852A4.884,4.884,0,0,0,426,386.216l-.005-.247Z" transform="translate(-7.178 -15.931)" fill="#0069a9"/>
    <path id="Path_1475" data-name="Path 1475" d="M428.994,424.74a1.25,1.25,0,0,1-.859-.411l-1.412-1.411c-.786-.788-.562-1.376-.237-1.731a.97.97,0,0,1,.733-.345,1.345,1.345,0,0,1,.66.2q0-.448,0-.894c0-.518,0-1.035.007-1.553a1.1,1.1,0,1,1,2.192,0c.006.658,0,1.314,0,2v.422c.014-.009.029-.018.044-.026a1.2,1.2,0,0,1,.582-.163,1.051,1.051,0,0,1,.763.348.975.975,0,0,1,.091,1.381,22.38,22.38,0,0,1-1.969,1.95A.9.9,0,0,1,428.994,424.74Z" transform="translate(-10.181 -29.7)" fill="#0069a9"/>
    <g id="Group_1030" data-name="Group 1030" transform="translate(417.329 345.384)">
      <path id="Path_1477" data-name="Path 1477" d="M453.3,345.384H452.9c-1.13.466-1.329.769-1.329,2.023v4.182H431.518c-.008-.179-.022-.357-.023-.534,0-1.231-.041-2.464.012-3.694a1.832,1.832,0,0,0-1.139-1.977h-.812a1.99,1.99,0,0,0-1.119,2.05q.006,5.32.006,10.64h3.08v-3.388h20.011v5.992H434.206c-.009.957-.009,1.919-.007,2.855v.247h17.326v6H441.88c0,.432,0,.866,0,1.3v.689a4.361,4.361,0,0,1,.837-.081,4.247,4.247,0,0,1,2.952,1.187h5.875v5.99h-5.683a4.406,4.406,0,0,1-1.363.979c-.906.42-1.823.786-2.617,1.092q0,.066,0,.132h.051c.2,0,.395,0,.591,0l.2,0,.482,0a5.953,5.953,0,0,1,1.109.082,4.446,4.446,0,0,1,1.914.821h5.316v5.988h-4.612a4.7,4.7,0,0,1-.454.489,4.4,4.4,0,0,1,.455,2.612h4.632v.577c0,1.367-.01,2.734.006,4.1a1.505,1.505,0,0,0,2.969.33,3.369,3.369,0,0,0,.066-.8q0-23.919.015-47.838A1.858,1.858,0,0,0,453.3,345.384Z" transform="translate(-428.437 -345.384)" fill="#0069a9"/>
    </g>
    <path id="Path_1478" data-name="Path 1478" d="M428.976,397.122c-.684,0-1.093-.494-1.1-1.311q0-.918,0-1.837v-.467a1.317,1.317,0,0,1-.654.2.986.986,0,0,1-.778-.4c-.42-.507-.339-1.059.242-1.645q.688-.692,1.381-1.38a1.32,1.32,0,0,1,.916-.465,1.35,1.35,0,0,1,.933.476q.7.683,1.383,1.379a1.151,1.151,0,0,1,.2,1.657.98.98,0,0,1-.755.373,1.335,1.335,0,0,1-.673-.209v.438c0,.641,0,1.266,0,1.891,0,.826-.4,1.3-1.091,1.3Z" transform="translate(-10.179 -18.323)" fill="#0069a9"/>
  </g>
</svg>
